<mxfile host="app.diagrams.net" modified="2022-09-24T19:27:13.341Z" agent="5.0 (X11)" etag="BtNpH2i0_SYHCggcx_TR" version="20.3.6" type="github">
  <diagram id="YF7_Vcd9PrOz3bAeg6Bc" name="Page-1">
    <mxGraphModel dx="1422" dy="1889" grid="1" gridSize="10" guides="1" tooltips="1" connect="1" arrows="1" fold="1" page="1" pageScale="1" pageWidth="850" pageHeight="1100" math="0" shadow="0">
      <root>
        <mxCell id="0" />
        <mxCell id="1" parent="0" />
        <mxCell id="BELcJV6hc1cGwjVU0L3B-1" value="&lt;font size=&quot;1&quot;&gt;&lt;b style=&quot;font-size: 15px;&quot;&gt;START.&lt;/b&gt;&lt;/font&gt;" style="ellipse;whiteSpace=wrap;html=1;strokeWidth=2;fillColor=#d5e8d4;strokeColor=#82b366;" vertex="1" parent="1">
          <mxGeometry x="360" width="160" height="80" as="geometry" />
        </mxCell>
        <mxCell id="BELcJV6hc1cGwjVU0L3B-2" value="&lt;font size=&quot;1&quot;&gt;&lt;b style=&quot;font-size: 15px;&quot;&gt;STOP.&lt;/b&gt;&lt;/font&gt;" style="ellipse;whiteSpace=wrap;html=1;strokeWidth=2;fillColor=#f8cecc;strokeColor=#b85450;" vertex="1" parent="1">
          <mxGeometry x="360" y="960" width="160" height="80" as="geometry" />
        </mxCell>
        <mxCell id="BELcJV6hc1cGwjVU0L3B-3" value="&lt;font style=&quot;font-size: 15px;&quot;&gt;&lt;b&gt;S&lt;span style=&quot;white-space: pre;&quot;&gt;et num_1=0&lt;/span&gt;&lt;/b&gt;&lt;/font&gt;" style="rounded=0;whiteSpace=wrap;html=1;strokeWidth=2;fontSize=15;fillColor=#ffe6cc;strokeColor=#d79b00;" vertex="1" parent="1">
          <mxGeometry x="360" y="160" width="160" height="80" as="geometry" />
        </mxCell>
        <mxCell id="BELcJV6hc1cGwjVU0L3B-4" value="" style="endArrow=classic;html=1;rounded=0;fontSize=15;exitX=0.5;exitY=1;exitDx=0;exitDy=0;strokeWidth=2;" edge="1" parent="1" source="BELcJV6hc1cGwjVU0L3B-1" target="BELcJV6hc1cGwjVU0L3B-3">
          <mxGeometry width="50" height="50" relative="1" as="geometry">
            <mxPoint x="419.5" y="80" as="sourcePoint" />
            <mxPoint x="419.5" y="150" as="targetPoint" />
          </mxGeometry>
        </mxCell>
        <mxCell id="BELcJV6hc1cGwjVU0L3B-5" value="&lt;b&gt;Input numbers&lt;/b&gt;" style="shape=parallelogram;perimeter=parallelogramPerimeter;whiteSpace=wrap;html=1;fixedSize=1;strokeWidth=2;fontSize=15;fillColor=#dae8fc;strokeColor=#6c8ebf;" vertex="1" parent="1">
          <mxGeometry x="360" y="320" width="160" height="80" as="geometry" />
        </mxCell>
        <mxCell id="BELcJV6hc1cGwjVU0L3B-6" value="" style="endArrow=classic;html=1;rounded=0;fontSize=15;entryX=0.5;entryY=0;entryDx=0;entryDy=0;exitX=0.5;exitY=1;exitDx=0;exitDy=0;strokeWidth=2;" edge="1" parent="1" source="BELcJV6hc1cGwjVU0L3B-3" target="BELcJV6hc1cGwjVU0L3B-5">
          <mxGeometry width="50" height="50" relative="1" as="geometry">
            <mxPoint x="430" y="250" as="sourcePoint" />
            <mxPoint x="419.86363636363626" y="300" as="targetPoint" />
          </mxGeometry>
        </mxCell>
        <mxCell id="BELcJV6hc1cGwjVU0L3B-9" value="&lt;b&gt;Display numbers&lt;/b&gt;" style="shape=parallelogram;perimeter=parallelogramPerimeter;whiteSpace=wrap;html=1;fixedSize=1;strokeWidth=2;fontSize=15;fillColor=#964B00;strokeColor=#6c8ebf;opacity=80;" vertex="1" parent="1">
          <mxGeometry x="360" y="480" width="160" height="80" as="geometry" />
        </mxCell>
        <mxCell id="BELcJV6hc1cGwjVU0L3B-10" value="" style="endArrow=classic;html=1;rounded=0;fontSize=15;entryX=0.5;entryY=0;entryDx=0;entryDy=0;exitX=0.5;exitY=1;exitDx=0;exitDy=0;strokeWidth=2;" edge="1" parent="1">
          <mxGeometry width="50" height="50" relative="1" as="geometry">
            <mxPoint x="439.5" y="400" as="sourcePoint" />
            <mxPoint x="439.5" y="480" as="targetPoint" />
          </mxGeometry>
        </mxCell>
        <mxCell id="BELcJV6hc1cGwjVU0L3B-12" value="&lt;div&gt;&lt;font style=&quot;font-size: 15px;&quot;&gt;&lt;b&gt;S&lt;span style=&quot;white-space: pre;&quot;&gt;quare and&lt;/span&gt;&lt;/b&gt;&lt;/font&gt;&lt;/div&gt;&lt;div&gt;&lt;font style=&quot;font-size: 15px;&quot;&gt;&lt;b&gt;&lt;span style=&quot;white-space: pre;&quot;&gt;input to sum&lt;br&gt;&lt;/span&gt;&lt;/b&gt;&lt;/font&gt;&lt;/div&gt;" style="rounded=0;whiteSpace=wrap;html=1;strokeWidth=2;fontSize=15;fillColor=#fff2cc;strokeColor=#d6b656;" vertex="1" parent="1">
          <mxGeometry x="360" y="640" width="160" height="80" as="geometry" />
        </mxCell>
        <mxCell id="BELcJV6hc1cGwjVU0L3B-13" value="" style="endArrow=classic;html=1;rounded=0;fontSize=15;entryX=0.5;entryY=0;entryDx=0;entryDy=0;exitX=0.5;exitY=1;exitDx=0;exitDy=0;strokeWidth=2;" edge="1" parent="1">
          <mxGeometry width="50" height="50" relative="1" as="geometry">
            <mxPoint x="439.5" y="560" as="sourcePoint" />
            <mxPoint x="439.5" y="640" as="targetPoint" />
          </mxGeometry>
        </mxCell>
        <mxCell id="BELcJV6hc1cGwjVU0L3B-14" value="" style="endArrow=classic;html=1;rounded=0;fontSize=15;entryX=0.5;entryY=0;entryDx=0;entryDy=0;exitX=0.5;exitY=1;exitDx=0;exitDy=0;strokeWidth=2;" edge="1" parent="1" target="BELcJV6hc1cGwjVU0L3B-15">
          <mxGeometry width="50" height="50" relative="1" as="geometry">
            <mxPoint x="439.5" y="720" as="sourcePoint" />
            <mxPoint x="439.5" y="800" as="targetPoint" />
          </mxGeometry>
        </mxCell>
        <mxCell id="BELcJV6hc1cGwjVU0L3B-15" value="&lt;div&gt;Condition&lt;/div&gt;&lt;div&gt;n&amp;lt;0&lt;br&gt;&lt;/div&gt;" style="rhombus;whiteSpace=wrap;html=1;strokeWidth=2;fontSize=15;fillColor=#964B00;opacity=80;" vertex="1" parent="1">
          <mxGeometry x="360" y="800" width="160" height="80" as="geometry" />
        </mxCell>
        <mxCell id="BELcJV6hc1cGwjVU0L3B-16" value="" style="endArrow=classic;html=1;rounded=0;fontSize=15;exitX=0.5;exitY=1;exitDx=0;exitDy=0;strokeWidth=2;" edge="1" parent="1" source="BELcJV6hc1cGwjVU0L3B-15">
          <mxGeometry width="50" height="50" relative="1" as="geometry">
            <mxPoint x="290" y="810" as="sourcePoint" />
            <mxPoint x="440" y="960" as="targetPoint" />
          </mxGeometry>
        </mxCell>
        <mxCell id="BELcJV6hc1cGwjVU0L3B-17" value="" style="endArrow=classic;html=1;rounded=0;strokeWidth=2;fontSize=15;entryX=0;entryY=0.5;entryDx=0;entryDy=0;" edge="1" parent="1" target="BELcJV6hc1cGwjVU0L3B-21">
          <mxGeometry width="50" height="50" relative="1" as="geometry">
            <mxPoint x="520" y="840" as="sourcePoint" />
            <mxPoint x="600" y="840" as="targetPoint" />
          </mxGeometry>
        </mxCell>
        <mxCell id="BELcJV6hc1cGwjVU0L3B-18" value="&lt;b&gt;TRUE&lt;/b&gt;" style="text;html=1;align=center;verticalAlign=middle;resizable=0;points=[];autosize=1;fontSize=15;" vertex="1" parent="1">
          <mxGeometry x="440" y="900" width="60" height="30" as="geometry" />
        </mxCell>
        <mxCell id="BELcJV6hc1cGwjVU0L3B-19" value="&lt;b&gt;FALSE&lt;/b&gt;" style="text;html=1;align=center;verticalAlign=middle;resizable=0;points=[];autosize=1;fontSize=15;" vertex="1" parent="1">
          <mxGeometry x="515" y="810" width="70" height="30" as="geometry" />
        </mxCell>
        <mxCell id="BELcJV6hc1cGwjVU0L3B-21" value="&lt;div&gt;&lt;b&gt;Print user input&lt;/b&gt;&lt;/div&gt;&lt;div&gt;&lt;b&gt;added to sum&lt;br&gt;&lt;/b&gt;&lt;/div&gt;" style="shape=parallelogram;perimeter=parallelogramPerimeter;whiteSpace=wrap;html=1;fixedSize=1;strokeWidth=2;fontSize=15;fillColor=#d5e8d4;strokeColor=#82b366;opacity=80;" vertex="1" parent="1">
          <mxGeometry x="600" y="800" width="160" height="80" as="geometry" />
        </mxCell>
        <mxCell id="BELcJV6hc1cGwjVU0L3B-23" value="" style="endArrow=classic;html=1;rounded=0;strokeWidth=2;fontSize=15;" edge="1" parent="1">
          <mxGeometry width="50" height="50" relative="1" as="geometry">
            <mxPoint x="680" y="360" as="sourcePoint" />
            <mxPoint x="510" y="360" as="targetPoint" />
          </mxGeometry>
        </mxCell>
        <mxCell id="BELcJV6hc1cGwjVU0L3B-24" value="" style="endArrow=none;html=1;rounded=0;strokeWidth=2;fontSize=15;exitX=0.5;exitY=0;exitDx=0;exitDy=0;" edge="1" parent="1" source="BELcJV6hc1cGwjVU0L3B-21">
          <mxGeometry width="50" height="50" relative="1" as="geometry">
            <mxPoint x="670" y="770" as="sourcePoint" />
            <mxPoint x="680" y="360" as="targetPoint" />
          </mxGeometry>
        </mxCell>
        <mxCell id="BELcJV6hc1cGwjVU0L3B-25" value="&lt;font style=&quot;font-size: 25px;&quot;&gt;&lt;b&gt;FLOWCHART FOR QUESTION NO 2&lt;/b&gt;&lt;/font&gt;" style="text;html=1;align=center;verticalAlign=middle;resizable=0;points=[];autosize=1;strokeColor=none;fillColor=none;fontSize=15;" vertex="1" parent="1">
          <mxGeometry x="205" y="-80" width="440" height="40" as="geometry" />
        </mxCell>
      </root>
    </mxGraphModel>
  </diagram>
</mxfile>
